<svg width="111" height="82" viewBox="0 0 111 82" fill="none" xmlns="http://www.w3.org/2000/svg">
<rect x="6" y="6" width="10" height="10" fill="white" stroke="#E8E8E8" stroke-width="0.2"/>
<rect x="16" y="6" width="10" height="10" fill="white" stroke="#E8E8E8" stroke-width="0.2"/>
<rect x="26" y="6" width="10" height="10" fill="white" stroke="#E8E8E8" stroke-width="0.2"/>
<rect x="36" y="6" width="10" height="10" fill="white" stroke="#E8E8E8" stroke-width="0.2"/>
<rect x="46" y="6" width="10" height="10" fill="white" stroke="#E8E8E8" stroke-width="0.2"/>
<rect x="56" y="6" width="9" height="10" fill="white" stroke="#E8E8E8" stroke-width="0.2"/>
<rect x="65" y="6" width="10" height="10" fill="white" stroke="#E8E8E8" stroke-width="0.2"/>
<rect x="75" y="6" width="10" height="10" fill="white" stroke="#E8E8E8" stroke-width="0.2"/>
<rect x="85" y="6" width="10" height="10" fill="white" stroke="#E8E8E8" stroke-width="0.2"/>
<rect x="95" y="6" width="10" height="10" fill="white" stroke="#E8E8E8" stroke-width="0.2"/>
<rect x="6" y="16" width="10" height="10" fill="white" stroke="#E8E8E8" stroke-width="0.2"/>
<rect x="16" y="16" width="10" height="10" fill="white" stroke="#E8E8E8" stroke-width="0.2"/>
<rect x="26" y="16" width="10" height="10" fill="white" stroke="#E8E8E8" stroke-width="0.2"/>
<rect x="36" y="16" width="10" height="10" fill="white" stroke="#E8E8E8" stroke-width="0.2"/>
<rect x="46" y="16" width="10" height="10" fill="white" stroke="#E8E8E8" stroke-width="0.2"/>
<rect x="56" y="16" width="9" height="10" fill="white" stroke="#E8E8E8" stroke-width="0.2"/>
<rect x="65" y="16" width="10" height="10" fill="white" stroke="#E8E8E8" stroke-width="0.2"/>
<rect x="75" y="16" width="10" height="10" fill="white" stroke="#E8E8E8" stroke-width="0.2"/>
<rect x="85" y="16" width="10" height="10" fill="white" stroke="#E8E8E8" stroke-width="0.2"/>
<rect x="95" y="16" width="10" height="10" fill="white" stroke="#E8E8E8" stroke-width="0.2"/>
<rect x="6" y="26" width="10" height="10" fill="white" stroke="#E8E8E8" stroke-width="0.2"/>
<rect x="16" y="26" width="10" height="10" fill="white" stroke="#E8E8E8" stroke-width="0.2"/>
<rect x="26" y="26" width="10" height="10" fill="white" stroke="#E8E8E8" stroke-width="0.2"/>
<rect x="36" y="26" width="10" height="10" fill="white" stroke="#E8E8E8" stroke-width="0.2"/>
<rect x="46" y="26" width="10" height="10" fill="white" stroke="#E8E8E8" stroke-width="0.2"/>
<rect x="56" y="26" width="9" height="10" fill="white" stroke="#E8E8E8" stroke-width="0.2"/>
<rect x="65" y="26" width="10" height="10" fill="white" stroke="#E8E8E8" stroke-width="0.2"/>
<rect x="75" y="26" width="10" height="10" fill="white" stroke="#E8E8E8" stroke-width="0.2"/>
<rect x="85" y="26" width="10" height="10" fill="white" stroke="#E8E8E8" stroke-width="0.2"/>
<rect x="95" y="26" width="10" height="10" fill="white" stroke="#E8E8E8" stroke-width="0.2"/>
<rect x="6" y="36" width="10" height="10" fill="white" stroke="#E8E8E8" stroke-width="0.2"/>
<rect x="16" y="36" width="10" height="10" fill="white" stroke="#E8E8E8" stroke-width="0.2"/>
<rect x="26" y="36" width="10" height="10" fill="white" stroke="#E8E8E8" stroke-width="0.2"/>
<rect x="36" y="36" width="10" height="10" fill="white" stroke="#E8E8E8" stroke-width="0.2"/>
<rect x="46" y="36" width="10" height="10" fill="white" stroke="#E8E8E8" stroke-width="0.2"/>
<rect x="56" y="36" width="9" height="10" fill="white" stroke="#E8E8E8" stroke-width="0.2"/>
<rect x="65" y="36" width="10" height="10" fill="white" stroke="#E8E8E8" stroke-width="0.2"/>
<rect x="75" y="36" width="10" height="10" fill="white" stroke="#E8E8E8" stroke-width="0.2"/>
<rect x="85" y="36" width="10" height="10" fill="white" stroke="#E8E8E8" stroke-width="0.2"/>
<rect x="95" y="36" width="10" height="10" fill="white" stroke="#E8E8E8" stroke-width="0.2"/>
<rect x="6" y="46" width="10" height="10" fill="white" stroke="#E8E8E8" stroke-width="0.2"/>
<rect x="16" y="46" width="10" height="10" fill="white" stroke="#E8E8E8" stroke-width="0.2"/>
<rect x="26" y="46" width="10" height="10" fill="white" stroke="#E8E8E8" stroke-width="0.2"/>
<rect x="36" y="46" width="10" height="10" fill="white" stroke="#E8E8E8" stroke-width="0.2"/>
<rect x="46" y="46" width="10" height="10" fill="white" stroke="#E8E8E8" stroke-width="0.2"/>
<rect x="56" y="46" width="9" height="10" fill="white" stroke="#E8E8E8" stroke-width="0.2"/>
<rect x="65" y="46" width="10" height="10" fill="white" stroke="#E8E8E8" stroke-width="0.2"/>
<rect x="75" y="46" width="10" height="10" fill="white" stroke="#E8E8E8" stroke-width="0.2"/>
<rect x="85" y="46" width="10" height="10" fill="white" stroke="#E8E8E8" stroke-width="0.2"/>
<rect x="95" y="46" width="10" height="10" fill="white" stroke="#E8E8E8" stroke-width="0.2"/>
<rect x="6" y="56" width="10" height="10" fill="white" stroke="#E8E8E8" stroke-width="0.2"/>
<rect x="16" y="56" width="10" height="10" fill="white" stroke="#E8E8E8" stroke-width="0.2"/>
<rect x="26" y="56" width="10" height="10" fill="white" stroke="#E8E8E8" stroke-width="0.2"/>
<rect x="36" y="56" width="10" height="10" fill="white" stroke="#E8E8E8" stroke-width="0.2"/>
<rect x="46" y="56" width="10" height="10" fill="white" stroke="#E8E8E8" stroke-width="0.2"/>
<rect x="56" y="56" width="9" height="10" fill="white" stroke="#E8E8E8" stroke-width="0.2"/>
<rect x="65" y="56" width="10" height="10" fill="white" stroke="#E8E8E8" stroke-width="0.2"/>
<rect x="75" y="56" width="10" height="10" fill="white" stroke="#E8E8E8" stroke-width="0.2"/>
<rect x="85" y="56" width="10" height="10" fill="white" stroke="#E8E8E8" stroke-width="0.2"/>
<rect x="95" y="56" width="10" height="10" fill="white" stroke="#E8E8E8" stroke-width="0.2"/>
<rect x="6" y="66" width="10" height="10" fill="white" stroke="#E8E8E8" stroke-width="0.2"/>
<rect x="16" y="66" width="10" height="10" fill="white" stroke="#E8E8E8" stroke-width="0.2"/>
<rect x="26" y="66" width="10" height="10" fill="white" stroke="#E8E8E8" stroke-width="0.2"/>
<rect x="36" y="66" width="10" height="10" fill="white" stroke="#E8E8E8" stroke-width="0.2"/>
<rect x="46" y="66" width="10" height="10" fill="white" stroke="#E8E8E8" stroke-width="0.2"/>
<rect x="56" y="66" width="9" height="10" fill="white" stroke="#E8E8E8" stroke-width="0.2"/>
<rect x="65" y="66" width="10" height="10" fill="white" stroke="#E8E8E8" stroke-width="0.2"/>
<rect x="75" y="66" width="10" height="10" fill="white" stroke="#E8E8E8" stroke-width="0.2"/>
<rect x="85" y="66" width="10" height="10" fill="white" stroke="#E8E8E8" stroke-width="0.2"/>
<rect x="95" y="66" width="10" height="10" fill="white" stroke="#E8E8E8" stroke-width="0.2"/>
<rect x="6.34375" y="29.4512" width="23.0986" height="98.1582" rx="2" transform="rotate(-90 6.34375 29.4512)" fill="#EDE1E4" stroke="#794E57" stroke-width="0.5"/>
<path d="M57.0318 19.1783L55.4568 15.0973C55.4102 14.976 55.3612 14.836 55.3098 14.6773C55.2585 14.514 55.2095 14.3413 55.1628 14.1593C55.0648 14.5373 54.9645 14.8523 54.8618 15.1043L53.2868 19.1783H57.0318ZM59.8598 22.9023H58.8098C58.6885 22.9023 58.5905 22.872 58.5158 22.8113C58.4412 22.7507 58.3852 22.6737 58.3478 22.5803L57.4098 20.1583H52.9088L51.9708 22.5803C51.9428 22.6643 51.8892 22.739 51.8098 22.8043C51.7305 22.8697 51.6325 22.9023 51.5158 22.9023H50.4658L54.4768 12.8713H55.8488L59.8598 22.9023Z" fill="black"/>
<rect width="105.099" height="5.77465" fill="#D9D9D9"/>
<rect y="76.2266" width="105.099" height="5.77465" fill="#D9D9D9"/>
<rect width="5.77465" height="82" fill="#D9D9D9"/>
<rect x="105.098" width="5.77465" height="44.4648" fill="#D9D9D9"/>
<rect x="105.098" y="70.4512" width="5.77465" height="11.5493" fill="#D9D9D9"/>
</svg>
